<svg id="Layer_1" data-name="Layer 1" xmlns="http://www.w3.org/2000/svg" viewBox="0 0 20.83 6.43"><defs><style>.cls-1{fill:#fff;}</style></defs><title>LOGO</title><path class="cls-1" d="M22.55,31.83a1.42,1.42,0,0,1,1.51-1.44,1.29,1.29,0,0,1,1.22.75l-0.62.29a0.67,0.67,0,0,0-.6-0.41,0.81,0.81,0,0,0,0,1.61,0.67,0.67,0,0,0,.6-0.41l0.62,0.29a1.3,1.3,0,0,1-1.22.75A1.43,1.43,0,0,1,22.55,31.83Z" transform="translate(-22.55 -30.38)"/><path class="cls-1" d="M25.44,31.83a1.49,1.49,0,1,1,1.49,1.44A1.42,1.42,0,0,1,25.44,31.83Zm2.25,0a0.76,0.76,0,1,0-.76.81A0.75,0.75,0,0,0,27.69,31.83Z" transform="translate(-22.55 -30.38)"/><path class="cls-1" d="M31.23,33.22V31.4l-0.71,1.81H30.21L29.5,31.4v1.81H28.78V30.43h1l0.58,1.51,0.59-1.51h1v2.79H31.23Z" transform="translate(-22.55 -30.38)"/><path class="cls-1" d="M32.45,33.22V30.43h1.4a0.93,0.93,0,1,1,0,1.85H33.17v0.94H32.45Zm1.63-1.86a0.3,0.3,0,0,0-.33-0.3H33.17v0.6h0.58A0.3,0.3,0,0,0,34.08,31.36Z" transform="translate(-22.55 -30.38)"/><path class="cls-1" d="M36.73,33.22l-0.14-.4h-1.1l-0.14.4H34.54l1-2.79h0.9l1.05,2.79H36.73ZM36,31.14l-0.36,1H36.4Z" transform="translate(-22.55 -30.38)"/><path class="cls-1" d="M39.65,33.22L38.47,31.6v1.61H37.75V30.43h0.74L39.62,32V30.43h0.72v2.79H39.65Z" transform="translate(-22.55 -30.38)"/><path class="cls-1" d="M41.61,33.22V32.09l-1.06-1.66h0.81l0.61,1,0.6-1h0.82l-1.05,1.66v1.13H41.61Z" transform="translate(-22.55 -30.38)"/><path class="cls-1" d="M22.92,36.5V35.34h0.4a0.58,0.58,0,1,1,0,1.16h-0.4Zm0.84-.58a0.42,0.42,0,0,0-.45-0.45H23.07v0.9h0.25A0.43,0.43,0,0,0,23.76,35.92Z" transform="translate(-22.55 -30.38)"/><path class="cls-1" d="M24.08,36.08a0.42,0.42,0,0,1,.41-0.44,0.41,0.41,0,0,1,.4.45v0H24.22a0.3,0.3,0,0,0,.3.29,0.37,0.37,0,0,0,.26-0.11l0.06,0.09a0.46,0.46,0,0,1-.33.13A0.42,0.42,0,0,1,24.08,36.08Zm0.41-.33a0.28,0.28,0,0,0-.28.28h0.55A0.27,0.27,0,0,0,24.5,35.74Z" transform="translate(-22.55 -30.38)"/><path class="cls-1" d="M25,36.38l0.07-.09a0.38,0.38,0,0,0,.28.12,0.17,0.17,0,0,0,.2-0.14c0-.2-0.52-0.08-0.52-0.39a0.27,0.27,0,0,1,.31-0.24,0.42,0.42,0,0,1,.31.12l-0.06.09a0.33,0.33,0,0,0-.25-0.11,0.16,0.16,0,0,0-.19.13c0,0.18.52,0.06,0.52,0.39a0.28,0.28,0,0,1-.33.25A0.44,0.44,0,0,1,25,36.38Z" transform="translate(-22.55 -30.38)"/><path class="cls-1" d="M25.87,36.08a0.41,0.41,0,0,1,.42-0.44,0.36,0.36,0,0,1,.31.15l-0.09.08a0.25,0.25,0,0,0-.21-0.11,0.33,0.33,0,0,0,0,.65,0.25,0.25,0,0,0,.21-0.11l0.09,0.08a0.36,0.36,0,0,1-.31.15A0.41,0.41,0,0,1,25.87,36.08Z" transform="translate(-22.55 -30.38)"/><path class="cls-1" d="M26.78,36.5V35.66h0.13v0.14a0.36,0.36,0,0,1,.28-0.15v0.13H27.14a0.31,0.31,0,0,0-.23.13V36.5H26.78Z" transform="translate(-22.55 -30.38)"/><path class="cls-1" d="M27.33,35.45a0.09,0.09,0,1,1,.18,0A0.09,0.09,0,0,1,27.33,35.45Zm0,1V35.66h0.13V36.5H27.35Z" transform="translate(-22.55 -30.38)"/><path class="cls-1" d="M27.88,36.37v0.45H27.75V35.66h0.13v0.13a0.35,0.35,0,0,1,.28-0.15,0.45,0.45,0,0,1,0,.88A0.35,0.35,0,0,1,27.88,36.37Zm0.52-.29a0.28,0.28,0,0,0-.27-0.32,0.31,0.31,0,0,0-.25.13v0.38a0.31,0.31,0,0,0,.25.14A0.29,0.29,0,0,0,28.4,36.08Z" transform="translate(-22.55 -30.38)"/><path class="cls-1" d="M28.76,36.32V35.77H28.63V35.66h0.14V35.43H28.9v0.23h0.17v0.11H28.9v0.52a0.09,0.09,0,0,0,.08.11,0.12,0.12,0,0,0,.09,0l0,0.1a0.21,0.21,0,0,1-.16.05A0.17,0.17,0,0,1,28.76,36.32Z" transform="translate(-22.55 -30.38)"/><path class="cls-1" d="M29.23,35.45a0.09,0.09,0,1,1,.18,0A0.09,0.09,0,0,1,29.23,35.45Zm0,1V35.66h0.13V36.5H29.25Z" transform="translate(-22.55 -30.38)"/><path class="cls-1" d="M29.59,36.08a0.42,0.42,0,1,1,.42.44A0.41,0.41,0,0,1,29.59,36.08Zm0.69,0a0.28,0.28,0,1,0-.28.33A0.29,0.29,0,0,0,30.29,36.08Z" transform="translate(-22.55 -30.38)"/><path class="cls-1" d="M31.2,36.5V35.95A0.17,0.17,0,0,0,31,35.75a0.33,0.33,0,0,0-.25.13V36.5H30.64V35.66h0.13v0.12a0.42,0.42,0,0,1,.3-0.14,0.24,0.24,0,0,1,.27.27V36.5H31.2Z" transform="translate(-22.55 -30.38)"/></svg>